<svg width="12" height="16" viewBox="0 0 12 16" fill="none" xmlns="http://www.w3.org/2000/svg">
<path d="M5.375 15.6875C4.875 14.9583 4.30208 14.1354 3.65625 13.2188C3.03125 12.3021 2.58333 11.6562 2.3125 11.2812C2.04167 10.9062 1.72917 10.4479 1.375 9.90625C1.02083 9.34375 0.78125 8.94792 0.65625 8.71875C0.552083 8.48958 0.427083 8.19792 0.28125 7.84375C0.15625 7.48958 0.0729167 7.1875 0.03125 6.9375C0.0104167 6.66667 0 6.35417 0 6C0 4.33333 0.583333 2.91667 1.75 1.75C2.91667 0.583333 4.33333 0 6 0C7.66667 0 9.08333 0.583333 10.25 1.75C11.4167 2.91667 12 4.33333 12 6C12 6.35417 11.9792 6.66667 11.9375 6.9375C11.9167 7.1875 11.8333 7.48958 11.6875 7.84375C11.5625 8.19792 11.4375 8.48958 11.3125 8.71875C11.2083 8.94792 10.9792 9.34375 10.625 9.90625C10.2708 10.4479 9.95833 10.9062 9.6875 11.2812C9.41667 11.6562 8.95833 12.3021 8.3125 13.2188C7.6875 14.1354 7.125 14.9583 6.625 15.6875C6.47917 15.8958 6.27083 16 6 16C5.72917 16 5.52083 15.8958 5.375 15.6875ZM4.21875 7.78125C4.71875 8.26042 5.3125 8.5 6 8.5C6.6875 8.5 7.27083 8.26042 7.75 7.78125C8.25 7.28125 8.5 6.6875 8.5 6C8.5 5.3125 8.25 4.72917 7.75 4.25C7.27083 3.75 6.6875 3.5 6 3.5C5.3125 3.5 4.71875 3.75 4.21875 4.25C3.73958 4.72917 3.5 5.3125 3.5 6C3.5 6.6875 3.73958 7.28125 4.21875 7.78125Z" fill="#010F1C"/>
</svg>
