<svg width="17" height="17" viewBox="0 0 17 17" fill="none" xmlns="http://www.w3.org/2000/svg">
<path fill-rule="evenodd" clip-rule="evenodd" d="M16.7562 8.15004C16.7562 8.69106 16.6991 9.23134 16.587 9.75798C16.4777 10.2721 16.3159 10.7769 16.1038 11.2594C15.8966 11.7334 15.6396 12.1901 15.3393 12.6161C15.0435 13.0394 14.7027 13.4365 14.3284 13.7984C13.9532 14.1589 13.5404 14.4869 13.1021 14.7737C12.6594 15.0615 12.1855 15.3092 11.6941 15.5101C11.1935 15.7137 10.6694 15.8698 10.1372 15.9751C9.59088 16.0835 9.02912 16.1389 8.4678 16.1389C7.90607 16.1389 7.34434 16.0835 6.79879 15.9751C6.2658 15.8698 5.7417 15.7137 5.24148 15.5101C4.75017 15.3092 4.27583 15.0615 3.83309 14.7737C3.39479 14.4869 2.98199 14.1589 2.60763 13.7984C2.23289 13.4365 1.8921 13.0394 1.59586 12.6161C1.29718 12.1901 1.03977 11.7333 0.831767 11.2594C0.619674 10.7769 0.457409 10.2721 0.347729 9.75798C0.236849 9.23134 0.180176 8.69106 0.180176 8.15004C0.180176 7.60861 0.236816 7.06718 0.347761 6.5417C0.457441 6.02756 0.619706 5.52203 0.8318 5.04029C1.03981 4.56596 1.29722 4.1088 1.59589 3.68281C1.89214 3.25919 2.23292 2.86284 2.60767 2.50045C2.98202 2.14 3.39482 1.81275 3.83312 1.52643C4.27587 1.23736 4.7502 0.989693 5.24151 0.788393C5.74173 0.58434 6.2658 0.427939 6.79883 0.323412C7.34437 0.215757 7.9061 0.161133 8.46784 0.161133C9.02915 0.161133 9.59088 0.215757 10.1372 0.323412C10.6694 0.427971 11.1935 0.584371 11.6942 0.788393C12.1855 0.989662 12.6594 1.23736 13.1021 1.52643C13.5404 1.81275 13.9533 2.14 14.3284 2.50045C14.7028 2.86284 15.0435 3.25919 15.3394 3.68281C15.6396 4.1088 15.8966 4.56599 16.1038 5.04029C16.3159 5.52203 16.4777 6.02756 16.587 6.5417C16.6991 7.06718 16.7562 7.60861 16.7562 8.15004ZM5.44783 1.9793C3.47405 2.87768 2.00091 4.6307 1.54156 6.74339C1.72816 6.74496 4.67767 6.78085 8.076 5.91055C6.85096 3.81268 5.54214 2.10065 5.44783 1.9793ZM8.66241 6.96108C5.01803 8.01271 1.52093 7.93704 1.39548 7.93238C1.39344 8.0057 1.3898 8.07668 1.3898 8.15003C1.3898 9.90265 2.07578 11.5004 3.2033 12.7085C3.20087 12.705 5.13783 9.39283 8.95746 8.20231C9.04972 8.17267 9.14363 8.14613 9.2367 8.12039C9.05906 7.73267 8.86516 7.34414 8.66241 6.96108ZM13.1422 3.02981C11.896 1.97071 10.2598 1.32829 8.46778 1.32829C7.89268 1.32829 7.33458 1.39539 6.79997 1.51942C6.90598 1.65675 8.23548 3.35671 9.44595 5.49901C12.1166 4.53397 13.1247 3.05476 13.1422 3.02981ZM9.71917 9.25085C9.7034 9.25588 9.68764 9.26023 9.67223 9.26567C5.49611 10.6689 4.13234 13.4968 4.11759 13.5277C5.31919 14.4284 6.82633 14.9718 8.46783 14.9718C9.448 14.9718 10.3817 14.7794 11.2311 14.4311C11.1263 13.8351 10.7151 11.7458 9.71917 9.25085ZM12.423 13.8078C14.0123 12.7741 15.141 11.1326 15.4559 9.23131C15.3102 9.18606 13.3299 8.58181 11.0453 8.93486C11.9737 11.394 12.3509 13.3967 12.423 13.8078ZM9.99074 6.51558C10.155 6.84092 10.3141 7.17204 10.461 7.50483C10.5132 7.62421 10.5642 7.74124 10.614 7.85824C13.0455 7.56333 15.4409 8.05951 15.5433 8.07977C15.5272 6.46252 14.927 4.97825 13.9338 3.81622C13.9205 3.83451 12.7853 5.41552 9.99074 6.51558Z" fill="white"/>
</svg>
