<svg width="17" height="13" viewBox="0 0 17 13" fill="none" xmlns="http://www.w3.org/2000/svg">
<path fill-rule="evenodd" clip-rule="evenodd" d="M14.9843 1.00446C15.6975 1.19338 16.2592 1.75002 16.4498 2.45689C16.7962 3.73803 16.7962 6.41113 16.7962 6.41113C16.7962 6.41113 16.7962 9.08414 16.4498 10.3654C16.2592 11.0722 15.6975 11.6289 14.9843 11.8179C13.6917 12.1611 8.50822 12.1611 8.50822 12.1611C8.50822 12.1611 3.32473 12.1611 2.03208 11.8179C1.31885 11.6289 0.757145 11.0722 0.566521 10.3654C0.220215 9.08414 0.220215 6.41113 0.220215 6.41113C0.220215 6.41113 0.220215 3.73803 0.566521 2.45689C0.757145 1.75002 1.31885 1.19338 2.03208 1.00446C3.32473 0.661133 8.50822 0.661133 8.50822 0.661133C8.50822 0.661133 13.6917 0.661133 14.9843 1.00446ZM6.95423 4.16108V9.16108L11.0982 6.66117L6.95423 4.16108Z" fill="white"/>
</svg>
