<svg width="16" height="13" viewBox="0 0 16 13" fill="none" xmlns="http://www.w3.org/2000/svg">
<path fill-rule="evenodd" clip-rule="evenodd" d="M7.52284 3.35332L7.55545 3.87235L7.01195 3.8088C5.03363 3.56517 3.30532 2.73895 1.83788 1.35133L1.12046 0.662819L0.935676 1.17126C0.544359 2.30466 0.794367 3.50162 1.60961 4.30665C2.04441 4.75153 1.94658 4.81509 1.19655 4.55028C0.935676 4.46554 0.707408 4.40198 0.685668 4.43376C0.609578 4.50791 0.870456 5.47183 1.07698 5.85316C1.3596 6.38278 1.93571 6.90182 2.56616 7.209L3.09879 7.45263L2.46833 7.46322C1.85962 7.46322 1.83788 7.47381 1.9031 7.69626C2.1205 8.38477 2.97922 9.11566 3.93577 9.43343L4.6097 9.65587L4.02273 9.99483C3.15314 10.4821 2.13137 10.7575 1.10959 10.7787C0.620448 10.7893 0.218262 10.8316 0.218262 10.8634C0.218262 10.9693 1.54439 11.5625 2.31615 11.7956C4.63144 12.4841 7.38153 12.1875 9.44681 11.0117C10.9143 10.1749 12.3817 8.51188 13.0665 6.90182C13.4361 6.04382 13.8056 4.47613 13.8056 3.72406C13.8056 3.2368 13.8383 3.17325 14.447 2.59066C14.8057 2.2517 15.1426 1.88096 15.2079 1.77503C15.3166 1.57378 15.3057 1.57378 14.7513 1.75385C13.8274 2.07162 13.6969 2.02925 14.1535 1.55259C14.4905 1.21363 14.8926 0.599264 14.8926 0.419191C14.8926 0.387413 14.7296 0.440376 14.5448 0.535708C14.3491 0.641634 13.9143 0.800522 13.5882 0.895854L13.0013 1.07593L12.4686 0.726374C12.1752 0.535708 11.7621 0.323858 11.5447 0.260303C10.9903 0.112007 10.1425 0.133192 9.64247 0.302673C8.28373 0.779337 7.42501 2.00807 7.52284 3.35332Z" fill="white"/>
</svg>
