<svg width="18" height="17" viewBox="0 0 18 17" fill="none" xmlns="http://www.w3.org/2000/svg">
<path fill-rule="evenodd" clip-rule="evenodd" d="M8.94893 0.161133C6.69803 0.161133 6.41554 0.170633 5.53148 0.209467C4.64914 0.248467 4.04688 0.383302 3.51989 0.581137C2.97478 0.785473 2.51237 1.05881 2.05169 1.50365C1.59067 1.94832 1.30749 2.39466 1.09511 2.92066C0.889633 3.4295 0.749771 4.01101 0.710057 4.86235C0.670516 5.71569 0.660156 5.98853 0.660156 8.16122C0.660156 10.3339 0.670171 10.6057 0.71023 11.4591C0.750807 12.3108 0.890496 12.8921 1.09528 13.4008C1.30715 13.9269 1.59032 14.3733 2.05117 14.818C2.51168 15.263 2.97409 15.537 3.51886 15.7413C4.04619 15.9391 4.64863 16.074 5.53079 16.113C6.41485 16.1518 6.69717 16.1613 8.9479 16.1613C11.199 16.1613 11.4806 16.1518 12.3647 16.113C13.247 16.074 13.85 15.9391 14.3773 15.7413C14.9222 15.537 15.3839 15.263 15.8444 14.818C16.3055 14.3733 16.5887 13.9269 16.801 13.4009C17.0048 12.8921 17.1446 12.3106 17.1861 11.4593C17.2258 10.6059 17.2362 10.3339 17.2362 8.16122C17.2362 5.98853 17.2258 5.71586 17.1861 4.86251C17.1446 4.01084 17.0048 3.4295 16.801 2.92083C16.5887 2.39466 16.3055 1.94832 15.8444 1.50365C15.3834 1.05864 14.9224 0.785306 14.3768 0.581137C13.8484 0.383302 13.2458 0.248467 12.3635 0.209467C11.4794 0.170633 11.1979 0.161133 8.94634 0.161133H8.94893ZM8.20539 1.60279C8.42606 1.60246 8.67228 1.60279 8.9489 1.60279C11.1618 1.60279 11.4241 1.61046 12.298 1.64879C13.1061 1.68446 13.5446 1.81479 13.8368 1.9243C14.2236 2.0693 14.4993 2.24263 14.7892 2.52264C15.0793 2.80264 15.2589 3.06931 15.4095 3.44264C15.5229 3.72431 15.6581 4.14765 15.6949 4.92766C15.7346 5.771 15.7432 6.02434 15.7432 8.15936C15.7432 10.2944 15.7346 10.5477 15.6949 11.3911C15.6579 12.1711 15.5229 12.5944 15.4095 12.8761C15.2592 13.2494 15.0793 13.5153 14.7892 13.7951C14.4992 14.0751 14.2237 14.2484 13.8368 14.3934C13.545 14.5034 13.1061 14.6334 12.298 14.6691C11.4243 14.7074 11.1618 14.7158 8.9489 14.7158C6.73581 14.7158 6.47352 14.7074 5.59982 14.6691C4.79173 14.6331 4.35315 14.5028 4.06083 14.3933C3.67405 14.2483 3.39778 14.0749 3.1077 13.7949C2.81761 13.5149 2.63804 13.2489 2.48747 12.8754C2.37403 12.5937 2.23883 12.1704 2.20205 11.3904C2.16234 10.5471 2.15439 10.2937 2.15439 8.15736C2.15439 6.02101 2.16234 5.769 2.20205 4.92566C2.239 4.14565 2.37403 3.72231 2.48747 3.44031C2.63769 3.06697 2.81761 2.8003 3.1077 2.5203C3.39778 2.2403 3.67405 2.06696 4.06083 1.92163C4.35298 1.81163 4.79173 1.68163 5.59982 1.64579C6.3644 1.61246 6.6607 1.60246 8.20539 1.60079V1.60279ZM13.373 2.93114C12.8239 2.93114 12.3784 3.36065 12.3784 3.89082C12.3784 4.42083 12.8239 4.85083 13.373 4.85083C13.9221 4.85083 14.3676 4.42083 14.3676 3.89082C14.3676 3.36081 13.9221 2.93114 13.373 2.93114ZM8.94895 4.05282C6.59841 4.05282 4.69267 5.89234 4.69267 8.16119C4.69267 10.4301 6.59841 12.2687 8.94895 12.2687C11.2995 12.2687 13.2045 10.4301 13.2045 8.16119C13.2045 5.89234 11.2995 4.05282 8.94895 4.05282ZM8.94892 5.4945C10.4746 5.4945 11.7116 6.68835 11.7116 8.16119C11.7116 9.63388 10.4746 10.8279 8.94892 10.8279C7.42304 10.8279 6.18622 9.63388 6.18622 8.16119C6.18622 6.68835 7.42304 5.4945 8.94892 5.4945Z" fill="white"/>
</svg>
