<svg width="16" height="16" viewBox="0 0 16 16" fill="none" xmlns="http://www.w3.org/2000/svg">
<path d="M15.5312 11.3125C15.8438 11.4375 16 11.6667 16 12C16 12.0625 15.9896 12.1146 15.9688 12.1562L15.2188 15.4062C15.1979 15.5104 15.1458 15.6042 15.0625 15.6875C15 15.7917 14.9167 15.8646 14.8125 15.9062C14.7083 15.9688 14.6042 16 14.5 16C10.5 16 7.08333 14.5833 4.25 11.75C1.41667 8.91667 0 5.5 0 1.5C0 1.39583 0.0208333 1.29167 0.0625 1.1875C0.125 1.08333 0.197917 1 0.28125 0.9375C0.385417 0.854167 0.489583 0.802083 0.59375 0.78125L3.84375 0.03125C3.88542 0.0104167 3.9375 0 4 0C4.33333 0 4.5625 0.15625 4.6875 0.46875L6.1875 3.96875C6.22917 4.05208 6.25 4.14583 6.25 4.25C6.25 4.47917 6.15625 4.67708 5.96875 4.84375L4.09375 6.375C4.57292 7.41667 5.35417 8.47917 6.4375 9.5625C7.52083 10.6458 8.58333 11.4271 9.625 11.9062L11.1562 10.0312C11.3229 9.84375 11.5208 9.75 11.75 9.75C11.8542 9.75 11.9479 9.77083 12.0312 9.8125L15.5312 11.3125Z" fill="#010F1C"/>
</svg>
