<svg width="14" height="13" viewBox="0 0 14 13" fill="none" xmlns="http://www.w3.org/2000/svg">
<path d="M13.1892 4.51714L9.22202 3.94058L7.44859 0.345269C7.40015 0.246832 7.32046 0.167144 7.22202 0.118707C6.97515 -0.00316803 6.67515 0.0983945 6.55171 0.345269L4.77828 3.94058L0.811089 4.51714C0.701714 4.53277 0.601714 4.58433 0.525151 4.66246C0.432592 4.75759 0.381587 4.88558 0.383345 5.0183C0.385103 5.15102 0.439479 5.27762 0.534526 5.37027L3.40484 8.1687L2.72671 12.1203C2.71081 12.2122 2.72098 12.3067 2.75608 12.3932C2.79117 12.4796 2.84978 12.5545 2.92526 12.6093C3.00074 12.6641 3.09007 12.6967 3.18312 12.7033C3.27617 12.71 3.36922 12.6904 3.45171 12.6468L7.00015 10.7812L10.5486 12.6468C10.6455 12.6984 10.758 12.7156 10.8658 12.6968C11.1376 12.65 11.3205 12.3921 11.2736 12.1203L10.5955 8.1687L13.4658 5.37027C13.5439 5.29371 13.5955 5.19371 13.6111 5.08433C13.6533 4.81089 13.4626 4.55777 13.1892 4.51714Z" fill="#FDCA31"/>
</svg>
